<mxfile host="app.diagrams.net" agent="Mozilla/5.0 (X11; Linux x86_64) AppleWebKit/537.36 (KHTML, like Gecko) Chrome/137.0.0.0 Safari/537.36" version="27.1.1">
  <diagram name="Page-1" id="zWn3kAUAOZJZRxq8Lhsl">
    <mxGraphModel dx="792" dy="386" grid="1" gridSize="10" guides="1" tooltips="1" connect="1" arrows="1" fold="1" page="1" pageScale="1" pageWidth="850" pageHeight="1100" math="0" shadow="0">
      <root>
        <mxCell id="0" />
        <mxCell id="1" parent="0" />
        <mxCell id="Di7Ue4cH2_X8KlpuRzCa-21" value="&lt;div&gt;excid-cicd-demo-project&lt;/div&gt;" style="rounded=0;whiteSpace=wrap;html=1;" vertex="1" parent="1">
          <mxGeometry x="233" y="70" width="140" height="30" as="geometry" />
        </mxCell>
        <mxCell id="Di7Ue4cH2_X8KlpuRzCa-22" value="&lt;div&gt;excid-civd-demo-project&lt;/div&gt;" style="rounded=0;whiteSpace=wrap;html=1;" vertex="1" parent="1">
          <mxGeometry x="413" y="70" width="140" height="30" as="geometry" />
        </mxCell>
        <mxCell id="Di7Ue4cH2_X8KlpuRzCa-23" value=".gitlab-ci.yml" style="shape=image;verticalLabelPosition=bottom;labelBackgroundColor=default;verticalAlign=top;aspect=fixed;imageAspect=0;image=https://images.ctfassets.net/xz1dnu24egyd/1IRkfXmxo8VP2RAE5jiS1Q/ea2086675d87911b0ce2d34c354b3711/gitlab-logo-500.png;" vertex="1" parent="1">
          <mxGeometry x="133" y="150" width="40" height="40" as="geometry" />
        </mxCell>
        <mxCell id="Di7Ue4cH2_X8KlpuRzCa-24" value="&lt;b&gt;Official &lt;/b&gt;repo" style="text;html=1;align=center;verticalAlign=middle;resizable=0;points=[];autosize=1;strokeColor=none;fillColor=none;" vertex="1" parent="1">
          <mxGeometry x="258" y="40" width="90" height="30" as="geometry" />
        </mxCell>
        <mxCell id="Di7Ue4cH2_X8KlpuRzCa-25" value="&lt;b&gt;Malicious &lt;/b&gt;repo" style="text;html=1;align=center;verticalAlign=middle;resizable=0;points=[];autosize=1;strokeColor=none;fillColor=none;" vertex="1" parent="1">
          <mxGeometry x="428" y="40" width="110" height="30" as="geometry" />
        </mxCell>
        <mxCell id="Di7Ue4cH2_X8KlpuRzCa-26" value="" style="edgeStyle=orthogonalEdgeStyle;rounded=0;orthogonalLoop=1;jettySize=auto;html=1;" edge="1" parent="1" source="Di7Ue4cH2_X8KlpuRzCa-27" target="Di7Ue4cH2_X8KlpuRzCa-32">
          <mxGeometry relative="1" as="geometry" />
        </mxCell>
        <mxCell id="Di7Ue4cH2_X8KlpuRzCa-27" value="&lt;u&gt;secret scan, sast etc&lt;/u&gt;&lt;div&gt;gitleaks dir ..&lt;/div&gt;&lt;div&gt;sonar-scan ..&lt;/div&gt;" style="rounded=1;whiteSpace=wrap;html=1;" vertex="1" parent="1">
          <mxGeometry x="223" y="150" width="120" height="60" as="geometry" />
        </mxCell>
        <mxCell id="Di7Ue4cH2_X8KlpuRzCa-28" value="" style="edgeStyle=orthogonalEdgeStyle;rounded=0;orthogonalLoop=1;jettySize=auto;html=1;fillColor=#f8cecc;strokeColor=#FF0000;" edge="1" parent="1" source="Di7Ue4cH2_X8KlpuRzCa-32" target="Di7Ue4cH2_X8KlpuRzCa-37">
          <mxGeometry relative="1" as="geometry" />
        </mxCell>
        <mxCell id="Di7Ue4cH2_X8KlpuRzCa-29" value="image" style="edgeLabel;html=1;align=center;verticalAlign=middle;resizable=0;points=[];" vertex="1" connectable="0" parent="Di7Ue4cH2_X8KlpuRzCa-28">
          <mxGeometry x="-0.381" y="1" relative="1" as="geometry">
            <mxPoint x="23" y="1" as="offset" />
          </mxGeometry>
        </mxCell>
        <mxCell id="Di7Ue4cH2_X8KlpuRzCa-30" value="" style="edgeStyle=orthogonalEdgeStyle;rounded=0;orthogonalLoop=1;jettySize=auto;html=1;entryX=0;entryY=0.5;entryDx=0;entryDy=0;" edge="1" parent="1" source="Di7Ue4cH2_X8KlpuRzCa-32" target="Di7Ue4cH2_X8KlpuRzCa-39">
          <mxGeometry relative="1" as="geometry" />
        </mxCell>
        <mxCell id="Di7Ue4cH2_X8KlpuRzCa-31" value="image.att" style="edgeLabel;html=1;align=center;verticalAlign=middle;resizable=0;points=[];" vertex="1" connectable="0" parent="Di7Ue4cH2_X8KlpuRzCa-30">
          <mxGeometry x="-0.5856" y="-1" relative="1" as="geometry">
            <mxPoint as="offset" />
          </mxGeometry>
        </mxCell>
        <mxCell id="Di7Ue4cH2_X8KlpuRzCa-32" value="&lt;u&gt;build_image&lt;/u&gt;&lt;div&gt;docker build &lt;b&gt;malicious&lt;/b&gt;&lt;/div&gt;&lt;div&gt;docker push &lt;b&gt;malicious&lt;/b&gt;&lt;/div&gt;" style="rounded=1;whiteSpace=wrap;html=1;" vertex="1" parent="1">
          <mxGeometry x="388" y="150" width="155" height="60" as="geometry" />
        </mxCell>
        <mxCell id="Di7Ue4cH2_X8KlpuRzCa-33" value="" style="endArrow=none;dashed=1;html=1;dashPattern=1 3;strokeWidth=2;rounded=0;exitX=0.5;exitY=0;exitDx=0;exitDy=0;entryX=0.5;entryY=1;entryDx=0;entryDy=0;" edge="1" parent="1" source="Di7Ue4cH2_X8KlpuRzCa-27" target="Di7Ue4cH2_X8KlpuRzCa-21">
          <mxGeometry width="50" height="50" relative="1" as="geometry">
            <mxPoint x="413" y="200" as="sourcePoint" />
            <mxPoint x="463" y="150" as="targetPoint" />
          </mxGeometry>
        </mxCell>
        <mxCell id="Di7Ue4cH2_X8KlpuRzCa-34" value="runner scans official repo" style="edgeLabel;html=1;align=center;verticalAlign=middle;resizable=0;points=[];" vertex="1" connectable="0" parent="Di7Ue4cH2_X8KlpuRzCa-33">
          <mxGeometry x="-0.0761" y="-2" relative="1" as="geometry">
            <mxPoint as="offset" />
          </mxGeometry>
        </mxCell>
        <mxCell id="Di7Ue4cH2_X8KlpuRzCa-35" value="" style="endArrow=none;dashed=1;html=1;dashPattern=1 3;strokeWidth=2;rounded=0;entryX=0.5;entryY=0;entryDx=0;entryDy=0;exitX=0.5;exitY=1;exitDx=0;exitDy=0;" edge="1" parent="1" source="Di7Ue4cH2_X8KlpuRzCa-22" target="Di7Ue4cH2_X8KlpuRzCa-32">
          <mxGeometry width="50" height="50" relative="1" as="geometry">
            <mxPoint x="413" y="200" as="sourcePoint" />
            <mxPoint x="463" y="150" as="targetPoint" />
          </mxGeometry>
        </mxCell>
        <mxCell id="Di7Ue4cH2_X8KlpuRzCa-36" value="runner builds malicious repo" style="edgeLabel;html=1;align=center;verticalAlign=middle;resizable=0;points=[];" vertex="1" connectable="0" parent="Di7Ue4cH2_X8KlpuRzCa-35">
          <mxGeometry x="-0.0898" y="-6" relative="1" as="geometry">
            <mxPoint x="-7" y="8" as="offset" />
          </mxGeometry>
        </mxCell>
        <mxCell id="Di7Ue4cH2_X8KlpuRzCa-37" value="" style="editableCssRules=.*;html=1;shape=image;verticalLabelPosition=bottom;labelBackgroundColor=#ffffff;verticalAlign=top;aspect=fixed;imageAspect=0;image=data:image/svg+xml,PHN2ZyB4bWxucz0iaHR0cDovL3d3dy53My5vcmcvMjAwMC9zdmciIHhtbG5zOnY9Imh0dHBzOi8vdmVjdGEuaW8vbmFubyIgd2lkdGg9IjM3Ny4xNTkzMDIxNjAyNjMwNSIgaGVpZ2h0PSIzMzYuMTYyNDk5MDAzMzEwOCIgdmlld0JveD0iLTAuMDU4MDAwMDA1NzgxNjUwNTQgMC4xMTI5OTk5OTgwMzMwNDY3MiA5OS43OTAwMDA5MTU1MjczNCA4OC45NDMwMDA3OTM0NTcwMyI+JiN4YTs8c3R5bGUgdHlwZT0idGV4dC9jc3MiPiYjeGE7CS5zdDB7ZmlsbDojNjY5ZGY2O30mI3hhOwkuc3Qxe2ZpbGw6I2FlY2JmYTt9JiN4YTsJLnN0MntmaWxsOiM0Mjg1ZjQ7fSYjeGE7PC9zdHlsZT4mI3hhOwk8cGF0aCBjbGFzcz0ic3QwIiBkPSJNNTMuMjQzIDYyLjA5VjQ3LjA5NGwxMy4yMDEgOC40MTZ2MTUuMDM4em0tMzMuMDIxIDBWNDcuMDk0bDEzLjIwMSA4LjQxNnYxNS4wMzh6bTE2LjUxMS0zMi4yODVWMTQuODFsMTMuMjAxIDguNDE2djE1LjAzOHptNjIuOTk5IDMzLjk2VjI1LjQwM2wtOS41NjItMS44ODR2NDIuMTMxem0tOTkuNzg4IDBWMjUuNDAzbDkuNTYyLTEuODg0djQyLjEzMXoiLz4mI3hhOwk8cGF0aCBjbGFzcz0ic3QxIiBkPSJNNTMuMTg1IDQ3LjA5NGwxMy4yNTgtOC4yODcgMTMuMDE2IDguMjM0LTEzLjAxNiA4LjQ2OXptLTMzLjAyMSAwbDEzLjI1OC04LjI4NyAxMy4wMTYgOC4yMzQtMTMuMDE2IDguNDY5ek0zNi42NzUgMTQuODFsMTMuMjU4LTguMjg3IDEzLjAxNiA4LjIzNC0xMy4wMTYgOC40Njl6bTYzLjA1NiA0OC45NTZ2MTIuMjE3TDc3LjAxIDg5LjA1NVY3Ny43NTJ6bTAtMzguMzYzVjEzLjE4Nkw3Ny4wMS4xMTN2MTEuMzAzek0tLjA1OCA2My43NjZ2MTIuMjE3bDIyLjcyMSAxMy4wNzNWNzcuNzUyem0wLTM4LjM2M1YxMy4xODZMMjIuNjYzLjExM3YxMS4zMDN6Ii8+JiN4YTsJPHBhdGggY2xhc3M9InN0MiIgZD0iTTY2LjQ0NCA3MC41NDdWNTUuNTFsMTMuMDE2LTguNDY5djE1LjR6bS0zMy4wMjEgMFY1NS41MWwxMy4wMTYtOC40Njl2MTUuNHptMTYuNTExLTMyLjI4NVYyMy4yMjVsMTMuMDE2LTguNDY5djE1LjR6bTQ5Ljc5OCAyNS41MDNsLTkuNTYyIDUuODh2LTMuOTk2em0wLTM4LjM2M2wtOS41NjItNS44OHYzLjk5NnpNLS4wNTggNjMuNzY2bDkuNTYyIDUuODh2LTMuOTk2em0wLTM4LjM2M2w5LjU2Mi01Ljg4djMuOTk2eiIvPiYjeGE7PC9zdmc+;" vertex="1" parent="1">
          <mxGeometry x="663" y="155.5" width="54.45" height="49" as="geometry" />
        </mxCell>
        <mxCell id="Di7Ue4cH2_X8KlpuRzCa-38" value="&lt;div style=&quot;line-height: 80%;&quot;&gt;&lt;font style=&quot;font-size: 9px; line-height: 80%;&quot;&gt;malicious image&lt;/font&gt;&lt;div&gt;&lt;font style=&quot;font-size: 9px; line-height: 80%;&quot;&gt;stored in oci registry&lt;/font&gt;&lt;/div&gt;&lt;/div&gt;" style="text;html=1;align=center;verticalAlign=middle;resizable=0;points=[];autosize=1;strokeColor=none;fillColor=none;" vertex="1" parent="1">
          <mxGeometry x="553" y="142" width="100" height="30" as="geometry" />
        </mxCell>
        <mxCell id="Di7Ue4cH2_X8KlpuRzCa-39" value="" style="editableCssRules=.*;html=1;shape=image;verticalLabelPosition=bottom;labelBackgroundColor=#ffffff;verticalAlign=top;aspect=fixed;imageAspect=0;image=data:image/svg+xml,PHN2ZyB4bWxucz0iaHR0cDovL3d3dy53My5vcmcvMjAwMC9zdmciIHhtbG5zOnY9Imh0dHBzOi8vdmVjdGEuaW8vbmFubyIgd2lkdGg9IjIxLjk5OTAwMDU0OTMxNjQwNiIgaGVpZ2h0PSIyMC4zOTM5OTkwOTk3MzE0NDUiIHZpZXdCb3g9IjAgMCAyMS45OTkwMDA1NDkzMTY0MDYgMjAuMzkzOTk5MDk5NzMxNDQ1Ij4mI3hhOwk8c3R5bGUgdHlwZT0idGV4dC9jc3MiPiYjeGE7CS5zdDB7ZmlsbDojNDI4NWY0O2ZpbGwtcnVsZTpldmVub2RkfSYjeGE7CTwvc3R5bGU+JiN4YTsJPHBhdGggY2xhc3M9InN0MCIgZD0iTTUgMHYyLjQ1OEwxLjk5OSA0LjE5N3YxMi4wMUw1IDE3LjkzOHYyLjQ1NmwtNS0yLjg4N1YyLjg4NnptMTIgMGw0Ljk5OSAyLjg4NnYxNC42MjFMMTcgMjAuMzk0di0yLjQ1NmwzLTEuNzMxVjQuMTk3bC0zLTEuNzM5em0tNi4wMTYgNi42NzNsMi45NDctMS42NDYtMi45NDctMS42NDYtMi45NDcgMS42NDZ6bTMuMjY4LTEuMDk2bC0yLjg3MSAxLjY3OHYzLjI4N2wyLjg3MS0xLjY3NnpNNy43NzMgOC44NjZsMi44NzEgMS42NzRWNy4yNTZMNy43NzMgNS41Nzd6bS0uMjEyIDMuODc4bDIuODItMS42NDYtMi44Mi0xLjY0Ni0yLjgyIDEuNjQ2em0zLjEzMi0xLjA5OGwtMi44NzEgMS42Nzh2My4yODdsMi44NzEtMS42NzZ6bS02LjI2NCAzLjI4OUw3LjMgMTYuNjA5di0zLjI4NWwtMi44NzEtMS42Nzl6bTEwLjAyOS0yLjE5MWwyLjgyLTEuNjQ2LTIuODItMS42NDYtMi44MiAxLjY0NnptMy4xMzItMS4wOThsLTIuODcxIDEuNjc4djMuMjg3bDIuODcxLTEuNjc2em0tNi4yNjQgMy4yODlsMi44NzEgMS42NzR2LTMuMjg1bC0yLjg3MS0xLjY3OXoiLz4mI3hhOzwvc3ZnPg==;" vertex="1" parent="1">
          <mxGeometry x="538" y="240" width="49.44" height="44.5" as="geometry" />
        </mxCell>
        <mxCell id="Di7Ue4cH2_X8KlpuRzCa-40" value="&lt;div style=&quot;line-height: 80%;&quot;&gt;&lt;font size=&quot;1&quot;&gt;attestation stored&amp;nbsp;&lt;/font&gt;&lt;/div&gt;&lt;div style=&quot;line-height: 80%;&quot;&gt;&lt;font size=&quot;1&quot;&gt;in artifact registry&lt;/font&gt;&lt;/div&gt;&lt;div style=&quot;line-height: 80%;&quot;&gt;&lt;font size=&quot;1&quot;&gt;(subject field&amp;nbsp;&lt;/font&gt;&lt;/div&gt;&lt;div style=&quot;line-height: 80%;&quot;&gt;&lt;font size=&quot;1&quot;&gt;is the&amp;nbsp;&lt;b&gt;malicious&lt;/b&gt;&amp;nbsp;repo)&lt;/font&gt;&lt;/div&gt;" style="text;html=1;align=center;verticalAlign=middle;resizable=0;points=[];autosize=1;strokeColor=none;fillColor=none;" vertex="1" parent="1">
          <mxGeometry x="580.44" y="237.25" width="120" height="50" as="geometry" />
        </mxCell>
      </root>
    </mxGraphModel>
  </diagram>
</mxfile>
